<svg width="1440" height="900" viewBox="0 0 1440 900" fill="none" xmlns="http://www.w3.org/2000/svg">
<rect width="1440" height="900" fill="#DAF3F7"/>
<rect width="249" height="900" fill="#BDE0EF"/>
<rect opacity="0.22" y="755" width="1440" height="145" fill="#6097BE"/>
<path d="M73.15 515.6C75.7167 515.833 79.1 516.067 83.3 516.3C87.5 516.3 93.2167 516.3 100.45 516.3C130.083 516.3 152.133 508.833 166.6 493.9C181.3 478.733 188.65 457.617 188.65 430.55C188.65 403.017 181.533 381.9 167.3 367.2C153.067 352.5 131.017 345.15 101.15 345.15C88.0833 345.15 78.75 345.5 73.15 346.2V515.6ZM234.85 430.55C234.85 451.55 231.583 469.867 225.05 485.5C218.517 500.9 209.183 513.85 197.05 524.35C185.15 534.617 170.683 542.317 153.65 547.45C136.85 552.35 118.183 554.8 97.65 554.8C87.85 554.8 76.7667 554.333 64.4 553.4C52.0333 552.7 40.25 551.067 29.05 548.5V312.95C40.25 310.383 52.15 308.75 64.75 308.05C77.35 307.35 88.55 307 98.35 307C118.65 307 137.2 309.45 154 314.35C170.8 319.017 185.15 326.483 197.05 336.75C209.183 346.783 218.517 359.617 225.05 375.25C231.583 390.65 234.85 409.083 234.85 430.55ZM390.805 557.25C372.605 557.25 356.272 554.45 341.805 548.85C327.338 543.25 315.088 535.083 305.055 524.35C295.022 513.383 287.322 500.083 281.955 484.45C276.588 468.817 273.905 450.85 273.905 430.55C273.905 410.25 276.938 392.283 283.005 376.65C289.305 361.017 297.822 347.833 308.555 337.1C319.288 326.133 331.888 317.85 346.355 312.25C360.822 306.65 376.338 303.85 392.905 303.85C402.938 303.85 412.038 304.667 420.205 306.3C428.372 307.7 435.488 309.333 441.555 311.2C447.622 313.067 452.638 315.05 456.605 317.15C460.572 319.25 463.372 320.767 465.005 321.7L452.055 357.75C446.455 354.25 438.405 350.983 427.905 347.95C417.638 344.683 406.438 343.05 394.305 343.05C383.805 343.05 374.005 344.917 364.905 348.65C355.805 352.15 347.872 357.517 341.105 364.75C334.572 371.983 329.438 381.083 325.705 392.05C321.972 403.017 320.105 415.733 320.105 430.2C320.105 443.033 321.505 454.817 324.305 465.55C327.338 476.283 331.888 485.617 337.955 493.55C344.022 501.25 351.722 507.317 361.055 511.75C370.388 515.95 381.588 518.05 394.655 518.05C410.288 518.05 423.005 516.533 432.805 513.5C442.605 510.233 450.188 507.2 455.555 504.4L467.455 540.45C464.655 542.317 460.805 544.183 455.905 546.05C451.238 547.917 445.638 549.783 439.105 551.65C432.572 553.283 425.222 554.567 417.055 555.5C408.888 556.667 400.138 557.25 390.805 557.25Z" fill="white" fill-opacity="0.11"/>
</svg>
